<svg xmlns="http://www.w3.org/2000/svg" width="346.123" height="384.35" viewBox="0 0 346.123 384.35">
  <g id="home-img" transform="translate(-94.526 -31.89)">
    <g id="freepik--background-simple--inject-69">
      <path id="elu5uwaqhyxp" d="M106.09,319.86c-23.77-29.66-9-85.76,27-119.87,31.44-29.75,65.25-26.63,92.7-65,25.58-35.75,39.05-74,87.62-89.17C351.64,33.9,377.82,53.08,401,75.44c63.42,61.16,49.62,125.45-33.24,191.18-39.6,31.38-91.61,66.16-138.46,81.51C173.08,366.55,135.55,356.64,106.09,319.86Z" fill="#16a085"/>
      <g id="elpj14b9b9le">
        <path id="eltf8ksed9cbr" d="M106.09,319.86c-23.77-29.66-9-85.76,27-119.87,31.44-29.75,65.25-26.63,92.7-65,25.58-35.75,39.05-74,87.62-89.17C351.64,33.9,377.82,53.08,401,75.44c63.42,61.16,49.62,125.45-33.24,191.18-39.6,31.38-91.61,66.16-138.46,81.51C173.08,366.55,135.55,356.64,106.09,319.86Z" fill="rgba(214,246,252,0.89)" opacity="0.9"/>
      </g>
    </g>
    <g id="freepik--contraception-methods--inject-69">
      <g id="elbi5rtunglri">
        <circle id="el22kohm2olfaj" cx="20.58" cy="20.58" r="20.58" transform="translate(230.02 31.89)" fill="#f10c32"/>
      </g>
      <path id="elyoqcx71gfl" d="M253.56,52.01l-5.13,2.53-4.33-8.78,1.83-2.75,3.3.22Z" fill="#fff"/>
      <path id="eld5aqffop9hg" d="M246.47,44.6a.51.51,0,0,1-.45-.27L243,38.14a.5.5,0,1,1,.9-.44l3,6.18a.5.5,0,0,1-.23.67.42.42,0,0,1-.2.05Z" fill="#fff"/>
      <g id="elmn3zvnoo43k">
        <path id="el4wgkxoa3pw3" d="M256.81,58.59l-3-6.09-5.13,2.53,3,6.09-1.72.85.35.7,8.56-4.23-.34-.7Z" fill="#fff" opacity="0.4"/>
      </g>
      <path id="elj43rpvi7ehh" d="M257.65,63.62l-5.16-10.46L250,54.38l5.16,10.46-.84.42.36.71,4.15-2.05-.35-.72Z" fill="#fff"/>
      <path id="els4173d86kc" d="M347.82,89.28a20.58,20.58,0,1,1-4.59-28.74A20.58,20.58,0,0,1,347.82,89.28Z" fill="#f10c32"/>
      <path id="elz99a20jafqa" d="M338.13,66.69,334.28,72a.16.16,0,0,1-.26,0c-.38-.65-1.23-2.91,3.91-5.53a.16.16,0,0,1,.2.22Z" fill="#fff"/>
      <path id="elvgkkot892si" d="M327.65,87.79a.53.53,0,0,1-.24-.06.49.49,0,0,1-.19-.68l7.59-13.69a.87.87,0,0,0,0-.91l-.7-1a.49.49,0,0,1,.13-.69.5.5,0,0,1,.69.12l.7,1a1.87,1.87,0,0,1,.1,2l-7.6,13.7A.5.5,0,0,1,327.65,87.79Z" fill="#fff"/>
      <path id="el8ymstmvsrxc" d="M329.7,91.81a3.07,3.07,0,1,1,.48,0A2.591,2.591,0,0,1,329.7,91.81Zm0-5.06a1.83,1.83,0,0,0-.33,0,2.039,2.039,0,1,0,1.97,3.2h0a2,2,0,0,0-1.64-3.22Z" fill="#fff"/>
      <path id="eljlfdmkcj9cn" d="M339,67.31l-3.85,5.31a.15.15,0,0,0,.08.24c.74.17,3.16.26,4-5.44a.15.15,0,0,0-.23-.11Z" fill="#fff"/>
      <path id="el3odq1ic21ch" d="M322.67,84.18a.487.487,0,0,1-.34-.84L333,71.85a1.85,1.85,0,0,1,1.89-.51l1.17.35a.49.49,0,0,1,.34.62.5.5,0,0,1-.62.33l-1.17-.35a.87.87,0,0,0-.88.24L323,84A.52.52,0,0,1,322.67,84.18Z" fill="#fff"/>
      <path id="el2f2ysh5sm2b" d="M320.61,85.23a3.025,3.025,0,0,1-2.45-4.82h0a3.05,3.05,0,0,1,2-1.21,3.033,3.033,0,1,1,.95,5.99,3.883,3.883,0,0,1-.5.04Zm0-5.07a1.841,1.841,0,0,0-.33,0A2,2,0,0,0,319,81h0a2.028,2.028,0,1,0,1.62-.84Zm-2.06.55Z" fill="#fff"/>
      <g id="elaq3sfq1ian">
        <circle id="elg3ct4u3fg8o" cx="20.58" cy="20.58" r="20.58" transform="translate(356.39 127.35)" fill="#f10c32"/>
      </g>
      <g id="el5hsm0n4q9tk">
        <path id="el86ipzp1sq8x" d="M390,145.74l-4.41,14a3.09,3.09,0,0,1-3.85,2l-16.58-5.22a3.07,3.07,0,0,1-2-3.85l5.22-16.57a3.07,3.07,0,0,1,3.85-2l14,4.41-.8,2.56a3.07,3.07,0,0,0,2,3.85Z" fill="#fff" opacity="0.5"/>
      </g>
      <g id="eltbs40f34ac">
        <path id="elbz6qp9diufw" d="M388.4,145.24l-4.41,14a1.41,1.41,0,0,1-1.76.92L365.66,155a1.42,1.42,0,0,1-.92-1.76L370,136.62a1.4,1.4,0,0,1,1.76-.91l14,4.41-.3,1a3.07,3.07,0,0,0,2,3.85Z" fill="#fff" opacity="0.5"/>
      </g>
      <g id="eliwzs46zsh8">
        <path id="eliq39x5fza8" d="M377.81,148.2a.88.88,0,1,1-.57-1.11.89.89,0,0,1,.57,1.11Z" fill="#fff" opacity="0.5"/>
      </g>
      <g id="ely67oytju8um">
        <path id="elsiuw7ijodss" d="M376.91,151.08a.88.88,0,0,1-1.11.58.9.9,0,0,1-.58-1.11.89.89,0,0,1,1.69.53Z" fill="#fff" opacity="0.5"/>
      </g>
      <g id="ell6540shiqje">
        <path id="elk5ekambfk6" d="M378.72,145.32a.88.88,0,1,1-.054-.674A.88.88,0,0,1,378.72,145.32Z" fill="#fff" opacity="0.5"/>
      </g>
      <g id="els2u83l3039e">
        <path id="el3maobvv6esv" d="M380.7,149.11a.884.884,0,1,1-.58-1.11.89.89,0,0,1,.58,1.11Z" fill="#fff" opacity="0.5"/>
      </g>
      <g id="el0f3ujpts7tw">
        <path id="el8alvm8ooq1v" d="M379.79,152a.881.881,0,1,1-.575-1.105A.881.881,0,0,1,379.79,152Z" fill="#fff" opacity="0.5"/>
      </g>
      <g id="elffuc80unbsp">
        <path id="elmnt6sn6zei" d="M381.61,146.22a.88.88,0,0,1-1.11.58.9.9,0,0,1-.58-1.11.89.89,0,0,1,1.69.53Z" fill="#fff" opacity="0.5"/>
      </g>
      <g id="elfv8fm43k6bu">
        <path id="elgy9q0ylvmpr" d="M383.58,150a.88.88,0,1,1-.176-.883A.88.88,0,0,1,383.58,150Z" fill="#fff" opacity="0.5"/>
      </g>
      <g id="eloarz0wuwhcq">
        <path id="elh0w57i98p46" d="M382.67,152.9a.88.88,0,1,1-.57-1.11.89.89,0,0,1,.57,1.11Z" fill="#fff" opacity="0.5"/>
      </g>
      <g id="el1lejvlcnb4r">
        <path id="el1pg413d99dr" d="M384.49,147.13a.88.88,0,1,1-.58-1.11A.89.89,0,0,1,384.49,147.13Z" fill="#fff" opacity="0.5"/>
      </g>
      <g id="elub2sy3gdsb8">
        <path id="eleyjbma4frna" d="M374.93,147.29a.88.88,0,1,1-.58-1.11.89.89,0,0,1,.58,1.11Z" fill="#fff" opacity="0.5"/>
      </g>
      <g id="eluo43bi7yyho">
        <path id="el5dfzev5vwab" d="M374,150.18a.88.88,0,1,1-.054-.673.88.88,0,0,1,.054.673Z" fill="#fff" opacity="0.5"/>
      </g>
      <g id="eloq6hxfv53vj">
        <path id="elag56mi6a0nu" d="M375.84,144.41a.884.884,0,1,1-.58-1.11A.89.89,0,0,1,375.84,144.41Z" fill="#fff" opacity="0.5"/>
      </g>
      <g id="elurnt1bjtnl">
        <path id="elv4fipcuv5k" d="M372.05,146.38a.88.88,0,0,1-1.11.58.9.9,0,0,1-.58-1.11.89.89,0,0,1,1.69.53Z" fill="#fff" opacity="0.5"/>
      </g>
      <g id="elherbyoihoq8">
        <path id="el6vj55lfes4f" d="M371.14,149.27a.884.884,0,1,1-.58-1.11.89.89,0,0,1,.58,1.11Z" fill="#fff" opacity="0.5"/>
      </g>
      <g id="elo8xztg3brkp">
        <path id="elbros2d5kalv" d="M373,143.5a.88.88,0,1,1-.57-1.11.89.89,0,0,1,.57,1.11Z" fill="#fff" opacity="0.5"/>
      </g>
      <path id="elb8mhyy617i" d="M386.23,138.52l-.81,2.56a3.09,3.09,0,0,0,2,3.85l2.56.81Z" fill="#fff"/>
      <g id="eliwp4ob88m9m">
        <circle id="elhtvta6hd62v" cx="20.58" cy="20.58" r="20.58" transform="translate(152.41 64.73)" fill="#f10c32"/>
      </g>
      <g id="elfganvro0keo">
        <g id="el21bbzrte8gl" opacity="0.4">
          <path id="el7sepnjixav3" d="M173,71.62a13.68,13.68,0,1,0,9.683,4.007A13.69,13.69,0,0,0,173,71.62Zm0,24.1a10.42,10.42,0,1,1,10.4-10.41A10.42,10.42,0,0,1,173,95.72Z" fill="#fff"/>
        </g>
      </g>
      <g id="el1zcn5u6getv">
        <g id="elnlvi1yw1ejf" opacity="0.4">
          <path id="el1j4z1cdf2dt" d="M173,74a11.34,11.34,0,1,0,11.34,11.34A11.34,11.34,0,0,0,173,74Zm0,21.75a10.42,10.42,0,1,0,0-.03Z" fill="#fff"/>
        </g>
      </g>
      <g id="elvrakri79bf">
        <circle id="elcm3f493boj" cx="20.58" cy="20.58" r="20.58" transform="translate(346.02 210.98)" fill="#f10c32"/>
      </g>
      <g id="elfxhilokq48q">
        <rect id="el5oz641gde3l" width="25.72" height="11.5" rx="1.58" transform="translate(353.74 225.82)" fill="#fff" opacity="0.7"/>
      </g>
      <path id="elbcld7ax9kt9" d="M369.68,231.29a1.57,1.57,0,1,1,.36-2.19,1.57,1.57,0,0,1-.36,2.19Z" fill="#fff"/>
      <path id="elpvca324gp7" d="M365.35,234.39a1.56,1.56,0,1,1,.637-1.02,1.57,1.57,0,0,1-.637,1.02Z" fill="#fff"/>
      <path id="el8u1fuw34z6b" d="M372.39,235.08a1.57,1.57,0,1,1,.36-2.19,1.57,1.57,0,0,1-.36,2.19Z" fill="#fff"/>
      <path id="elzswaoofjnpj" d="M368.06,238.17a1.56,1.56,0,1,1,.632-1.015,1.56,1.56,0,0,1-.632,1.015Z" fill="#fff"/>
      <path id="elt2pq4ps053h" d="M375.1,238.86a1.57,1.57,0,1,1,.36-2.18,1.57,1.57,0,0,1-.36,2.18Z" fill="#fff"/>
      <path id="el403uoh1kcgp" d="M370.77,242a1.57,1.57,0,1,1,.36-2.19,1.57,1.57,0,0,1-.36,2.19Z" fill="#fff"/>
      <path id="el5hf7khc9uud" d="M367,227.5a1.56,1.56,0,1,1,.36-2.18,1.56,1.56,0,0,1-.36,2.18Z" fill="#fff"/>
      <path id="el7s5qxex0xba" d="M362.64,230.6a1.57,1.57,0,1,1,.36-2.18,1.55,1.55,0,0,1-.36,2.18Z" fill="#fff"/>
      <path id="el60r42wkwbb" d="M364.26,223.72a1.57,1.57,0,1,1,.36-2.19,1.57,1.57,0,0,1-.36,2.19Z" fill="#fff"/>
      <path id="el3av65p0lbck" d="M359.93,226.81a1.55,1.55,0,1,1,.637-1.015A1.56,1.56,0,0,1,359.93,226.81Z" fill="#fff"/>
      <path id="el5ofznpwt9y2" d="M166.62,258.33A20.58,20.58,0,1,1,174,244.4,20.58,20.58,0,0,1,166.62,258.33Z" fill="#f10c32"/>
      <g id="ely6lay7o9xi">
        <path id="elz5xlykj4g7" d="M142.07,251.94h0a1.23,1.23,0,0,1,.16-1.72l21-17.36a1.22,1.22,0,0,1,1.72.16h0a1.22,1.22,0,0,1-.16,1.72l-21,17.36a1.22,1.22,0,0,1-1.72-.16Z" fill="#fff" opacity="0.6"/>
      </g>
      <g id="el1db5n4iqvv9">
        <path id="el5ldq5n3rpsr" d="M161.49,235.87h0a.82.82,0,0,1,.11-1.16l1.64-1.36a.83.83,0,0,1,1.16.11h0a.84.84,0,0,1-.11,1.16L162.64,236a.81.81,0,0,1-1.15-.13Z" fill="#fff" opacity="0.6"/>
      </g>
      <g id="el0xfigpa0f0ac">
        <path id="elw4jcl72r6i" d="M143.87,249.75h0a.28.28,0,0,1,0-.39l11.73-9.71a.28.28,0,0,1,.39,0h0a.28.28,0,0,1,0,.39l-11.73,9.71A.28.28,0,0,1,143.87,249.75Z" fill="#fff" opacity="0.6"/>
      </g>
      <g id="elvxgfs04wi9p">
        <circle id="elx0iu4p7cid" cx="20.58" cy="20.58" r="20.58" transform="translate(114.06 139.77)" fill="#f10c32"/>
      </g>
      <g id="el3tqn4y7rfa4">
        <rect id="elibq71wcoxs" width="26.88" height="21.44" rx="2.1" transform="translate(121.21 149.63)" fill="#fff" opacity="0.4"/>
      </g>
      <path id="el2lwjg168jul" d="M120.36,157.56l2.83,13.91a2.11,2.11,0,0,0,2.48,1.64l22.22-4.52a2.1,2.1,0,0,0,1.64-2.47l-2.83-13.91Z" fill="#fff"/>
      <g id="el9o36gykrzb">
        <rect id="ela07nyy394qn" width="3.35" height="2.75" transform="translate(135.66 156.54)" fill="#16a085" opacity="0.2"/>
      </g>
      <g id="el468ggmofee">
        <rect id="elatlje71qmsq" width="3.35" height="2.75" transform="translate(136.48 160.58)" fill="#16a085" opacity="0.2"/>
      </g>
      <g id="elyjg7x71gxtf">
        <rect id="elx2pmo8e2df" width="3.35" height="2.75" transform="translate(141.78 155.3)" fill="#16a085" opacity="0.2"/>
      </g>
      <g id="el81kemq8xfed">
        <rect id="elbbdqoaq0orm" width="3.35" height="2.75" transform="translate(142.6 159.34)" fill="#16a085" opacity="0.2"/>
      </g>
      <g id="eln5hqf5retdt">
        <rect id="elnnjmjjpproa" width="3.35" height="2.75" transform="translate(129.54 157.78)" fill="#16a085" opacity="0.2"/>
      </g>
      <g id="elpiz34expxo">
        <rect id="elo3d5x1o70vd" width="3.35" height="2.75" transform="translate(130.36 161.83)" fill="#16a085" opacity="0.2"/>
      </g>
      <g id="elt47u6lf61n">
        <rect id="elexgcakxicz" width="3.35" height="2.75" transform="translate(123.42 159.03)" fill="#16a085" opacity="0.2"/>
      </g>
      <g id="eltqa2shi7jrf">
        <rect id="el99j2mp34qov" width="3.35" height="2.75" transform="translate(124.24 163.07)" fill="#16a085" opacity="0.2"/>
      </g>
      <g id="elop3ryxkuqt">
        <rect id="elqxafcr9rhsa" width="3.35" height="2.75" transform="translate(137.3 164.62)" fill="#16a085" opacity="0.2"/>
      </g>
      <g id="elqns235v618q">
        <rect id="elmixt1oht7k8" width="3.35" height="2.75" transform="translate(143.43 163.38)" fill="#16a085" opacity="0.2"/>
      </g>
      <g id="elkf4juvd95nn">
        <rect id="elqfl0a9tlqe8" width="3.35" height="2.75" transform="translate(131.18 165.87)" fill="#16a085" opacity="0.2"/>
      </g>
      <g id="el6temc86gp92">
        <rect id="eltt9lsbw0lrc" width="3.35" height="2.75" transform="translate(125.06 167.11)" fill="#16a085" opacity="0.2"/>
      </g>
    </g>
    <g id="freepik--Character--inject-69">
      <path id="el2fho0wpmwc7" d="M290.93,126.21c13.24-.74,21,12.21,13.32,20.45s-2.22,12.29.87,13.79c-3.38,9.74-30.44,11.08-36.18,2.86-4.82-6.9,14-15.78,9.46-23.31S280.63,126,290.93,126.21Z" fill="#263238"/>
      <path id="elxkb1s18yygd" d="M210.9,184.63l1.86,2.09a3.25,3.25,0,0,0,2.78,1.08l4.89-.52a6.09,6.09,0,0,0,4.66-3.07l.59-1.06c-2.84-3.68-8.63-5.57-8.63-5.57l-1.59-.72a2.71,2.71,0,0,0-3.64,1.27l-1.47,3.13A3.12,3.12,0,0,0,210.9,184.63Z" fill="#ffb573"/>
      <path id="el9qmxa4x9e3b" d="M273.44,184.15c-1.07,1.2-2,2.24-3.07,3.33s-2.05,2.12-3.09,3.17c-2.09,2.09-4.2,4.16-6.4,6.16a93.729,93.729,0,0,1-14.55,11.25h-.05a4,4,0,0,1-.4.22,10.14,10.14,0,0,1-4.68,1,12.359,12.359,0,0,1-3.57-.69,19.49,19.49,0,0,1-4.67-2.43,45,45,0,0,1-6.35-5.51c-1.86-1.88-3.57-3.8-5.2-5.76s-3.19-3.87-4.79-6l9.9-7.05c1.24,1.74,2.69,3.65,4.12,5.38s3,3.43,4.51,5a33.12,33.12,0,0,0,4.64,3.9,7.789,7.789,0,0,0,1.74.9c.15.05.18,0,0,0a2.37,2.37,0,0,0-1.17.26l-.45.24a62.3,62.3,0,0,0,6.12-4.6c2-1.7,4-3.55,5.89-5.47s3.79-3.91,5.61-5.95c.9-1,1.8-2.06,2.68-3.11s1.77-2.13,2.53-3.1Z" fill="#16a085"/>
      <g id="elr166lhr57bb">
        <path id="el16c8rquk0zih" d="M273.44,184.15c-1.07,1.2-2,2.24-3.07,3.33s-2.05,2.12-3.09,3.17c-2.09,2.09-4.2,4.16-6.4,6.16a93.729,93.729,0,0,1-14.55,11.25h-.05a4,4,0,0,1-.4.22,10.14,10.14,0,0,1-4.68,1,12.359,12.359,0,0,1-3.57-.69,19.49,19.49,0,0,1-4.67-2.43,45,45,0,0,1-6.35-5.51c-1.86-1.88-3.57-3.8-5.2-5.76s-3.19-3.87-4.79-6l9.9-7.05c1.24,1.74,2.69,3.65,4.12,5.38s3,3.43,4.51,5a33.12,33.12,0,0,0,4.64,3.9,7.789,7.789,0,0,0,1.74.9c.15.05.18,0,0,0a2.37,2.37,0,0,0-1.17.26l-.45.24a62.3,62.3,0,0,0,6.12-4.6c2-1.7,4-3.55,5.89-5.47s3.79-3.91,5.61-5.95c.9-1,1.8-2.06,2.68-3.11s1.77-2.13,2.53-3.1Z" fill="#fff" opacity="0.7"/>
      </g>
      <path id="el2fdlu6w9es4" d="M297.14,416.23c7,0,6.46-.11,10.37-.24,3.35-.12,4.14.3,6.82.24,2.25-.05,2.22-2.2,1.6-4.67-.32-1.24-.81-2.76-1.24-4.77H304.13a10.86,10.86,0,0,1-8.35,5.32C292,412.61,294.37,416.23,297.14,416.23Z"/>
      <path id="el5bz205xoqfj" d="M244.73,416.23c6.83,0,9.13-.45,13-.58,3.3-.12,3.81.58,7.15.58,2.21,0,2.63-2.49,1.91-4.36a28.7,28.7,0,0,1-1.91-5.08h-9.43c-1.84,3-6.57,5.2-11.77,5.57C239.93,412.63,242,416.23,244.73,416.23Z"/>
      <path id="elwldtxmpx36h" d="M261.43,230s-3.66,49.16-2.21,80.38c-1.56,29.31-3.8,96.43-3.8,96.43.16,1.5,8.05.9,9.43,0,0,0,17-48.89,12.7-96.43,18.68-49.6,16.59-80.38,16.59-80.38Z" fill="#263238"/>
      <path id="elj0k6p1rx9n9" d="M271.24,230s14.51,55.49,20.27,82.74c6.06,28.61,14.24,75.06,12.62,94.07,1.6.95,7.33,1,10.56,0,0,0,12.47-65.26-3.26-92.81,5.5-67.79-12.47-84-12.47-84Z" fill="#263238"/>
      <path id="el5pi3n91kajt" d="M303.44,402.83a28.588,28.588,0,0,1-.47,3.91.78.78,0,0,0,.65,1c3.85.62,9.47-.28,11.25-.6a.82.82,0,0,0,.67-.67l.68-3.65a.79.79,0,0,0-.8-.94l-11.17.21A.83.83,0,0,0,303.44,402.83Z" fill="#263238"/>
      <g id="el6kn9m31otkp">
        <path id="el2vnjgxex6oy" d="M303.44,402.83a28.588,28.588,0,0,1-.47,3.91.78.78,0,0,0,.65,1c3.85.62,9.47-.28,11.25-.6a.82.82,0,0,0,.67-.67l.68-3.65a.79.79,0,0,0-.8-.94l-11.17.21A.83.83,0,0,0,303.44,402.83Z" fill="#fff" opacity="0.1"/>
      </g>
      <path id="el8qvpbap7pdv" d="M254.54,402.66c-.08,1-.22,2.83-.38,4.17a.81.81,0,0,0,.7.9,56,56,0,0,0,10.41-.12A.81.81,0,0,0,266,407l.87-3.65a.82.82,0,0,0-.76-1l-10.71-.42a.79.79,0,0,0-.86.73Z" fill="#263238"/>
      <g id="el9hddghhq82">
        <path id="eltufhhbwqqr" d="M254.54,402.66c-.08,1-.22,2.83-.38,4.17a.81.81,0,0,0,.7.9,56,56,0,0,0,10.41-.12A.81.81,0,0,0,266,407l.87-3.65a.82.82,0,0,0-.76-1l-10.71-.42a.79.79,0,0,0-.86.73Z" fill="#fff" opacity="0.1"/>
      </g>
      <path id="elvdcsqk6uc8" d="M259.31,185.79a167.318,167.318,0,0,0,.24,17.17c.29,7.46.8,14.79,1.88,27H299c-.75-10.58.48-22.62,7.22-46.41a8.76,8.76,0,0,0-7.49-11.38c-1.49-.15-3.06-.27-4.68-.35a118.077,118.077,0,0,0-17,0c-1.86.17-3.77.4-5.61.65A14.12,14.12,0,0,0,259.31,185.79Z" fill="#fff"/>
      <path id="el5m4e6zkptq" d="M292.81,152.65c-1.48,5.48-3.3,15.53.26,19.19,0,0-5.19-.78-16.22,6-3.19-4.58-.82-6-.82-6,6.22-1.46,6.4-6,5.66-10.26Z" fill="#ffb573"/>
      <path id="elwcukbevr3s" d="M279.17,176.5c2.07,1.38,3,6.74,3,6.74s13.72-5.19,13.22-11.25a35.156,35.156,0,0,1-3.19-2S281.29,174.41,279.17,176.5Z" fill="#f10c32"/>
      <path id="el6jr5zv6b3ax" d="M275.72,175.92a23.5,23.5,0,0,0-2.27,6c-5.51-4.55.9-10.07.9-10.07a4.65,4.65,0,0,1,3.28-.47,3.88,3.88,0,0,0-1.91,4.54Z" fill="#f10c32"/>
      <g id="elmlge4r9v52s">
        <path id="elibwuv4qws1s" d="M288.28,156.29l-6.59,5.29a17.362,17.362,0,0,1,.3,3c2.36-.34,5.76-2.9,6.19-5.34A8.289,8.289,0,0,0,288.28,156.29Z" opacity="0.2"/>
      </g>
      <path id="eljcucln6nkno" d="M297.49,141.65c-1.66,8.85-2.18,12.62-7.23,16.87-7.6,6.39-18,3-19-6-.89-8.12,2-21.24,11.1-24.16a11.53,11.53,0,0,1,15.13,13.29Z" fill="#ffb573"/>
      <path id="elwdn4m4jifwa" d="M291.09,130.15c-2.69,7.16,3.07,11.42,4.35,17.61C302.11,143.33,302.58,124.81,291.09,130.15Z" fill="#263238"/>
      <path id="eljbenvkf141" d="M292.44,142.12a1.58,1.58,0,0,1-.71-.17A1.53,1.53,0,0,1,291,141a1.57,1.57,0,0,1,.09-1.2,1.59,1.59,0,0,1,.91-.78l4.68-1.52a1.581,1.581,0,0,1,1,3h0l-4.76,1.5a1.61,1.61,0,0,1-.48.12Zm4.68-4.16a1,1,0,0,0-.33.06l-4.68,1.52a1.067,1.067,0,0,0,.66,2.03l4.68-1.53a1.06,1.06,0,0,0,.68-1.34.955.955,0,0,0-1.01-.7ZM297.53,140.28Z" fill="#fff"/>
      <path id="elttdxqvnw5g" d="M283.47,143.12c-.11.75-.58,1.33-1.06,1.29s-.78-.67-.68-1.42.59-1.33,1.07-1.29S283.58,142.37,283.47,143.12Z" fill="#263238"/>
      <path id="el9o6ws5l1uqh" d="M274.43,142.59c-.11.75-.59,1.33-1.07,1.29s-.78-.67-.67-1.42.58-1.33,1.06-1.29S274.53,141.84,274.43,142.59Z" fill="#263238"/>
      <path id="elqo6ukmeqbu" d="M274,141.22l-1.69-.64S273,142.05,274,141.22Z" fill="#263238"/>
      <path id="eltzw455uofo" d="M276.77,144a22.25,22.25,0,0,1-3.31,4.59,3,3,0,0,0,2.55.69Z" fill="#ed893e"/>
      <path id="el0qnin8l68of" d="M279.83,152.36a7.37,7.37,0,0,1-1.25,0,.2.2,0,0,1-.18-.24.24.24,0,0,1,.25-.2,6.28,6.28,0,0,0,5.07-2,.21.21,0,0,1,.31,0,.22.22,0,0,1,0,.31,6.66,6.66,0,0,1-4.2,2.13Z" fill="#263238"/>
      <path id="elsopyza6nd2" d="M298.49,149.17a6.17,6.17,0,0,1-4.21,2.7c-2.12.24-2.66-2.23-1.63-4.46.93-2,3.14-4.55,5.06-3.75S299.82,147.27,298.49,149.17Z" fill="#ffb573"/>
      <path id="elw1374z50y2i" d="M297.39,152.23a2.16,2.16,0,1,1-2.16-2.16,2.16,2.16,0,0,1,2.16,2.16Z" fill="#fff"/>
      <path id="el8k71iivwbje" d="M286.26,138.77a.41.41,0,0,1-.3-.14,3.27,3.27,0,0,0-2.87-1.1.41.41,0,0,1-.49-.34.48.48,0,0,1,.38-.52,4,4,0,0,1,3.64,1.35.44.44,0,0,1-.05.62A.53.53,0,0,1,286.26,138.77Z" fill="#263238"/>
      <path id="elrwr3ami091" d="M271.89,138.17a.43.43,0,0,1-.31-.08.44.44,0,0,1-.06-.62,4.66,4.66,0,0,1,3.62-1.92.4.4,0,0,1,.38.46.47.47,0,0,1-.48.42,3.73,3.73,0,0,0-2.85,1.56A.5.5,0,0,1,271.89,138.17Z" fill="#263238"/>
      <path id="elxlt6twnvc3" d="M283,141.76l-1.69-.65S282,142.58,283,141.76Z" fill="#263238"/>
      <path id="elxr8gb8vavvp" d="M295.82,170c-4.17,2.86-9.75,33.62-11.35,79.38a599.988,599.988,0,0,0,2.83,82.86s18.27-20.08,29.68-26c.22-42.7-8.87-71.87-7.82-82.65s7-40.59,2.43-46.19S295.82,170,295.82,170Z" fill="#16a085"/>
      <g id="elcqn8gv5uxje">
        <path id="elkykmbzr9bwk" d="M295.82,170c-4.17,2.86-9.75,33.62-11.35,79.38a599.988,599.988,0,0,0,2.83,82.86s18.27-20.08,29.68-26c.22-42.7-8.87-71.87-7.82-82.65s7-40.59,2.43-46.19S295.82,170,295.82,170Z" fill="#fdfffe" opacity="0.8"/>
      </g>
      <path id="elatjkdxa5m3s" d="M274.68,171.53c-4.86,7.21-15.61,97-5.47,160.67-8-4.44-13.79-16.7-13.79-16.7s-.79-55.42,3-85.52C257.64,194.64,253.44,170.7,274.68,171.53Z" fill="#16a085"/>
      <g id="elsszz6k9v93k">
        <path id="elr6hn1xvis7" d="M274.68,171.53c-4.86,7.21-15.61,97-5.47,160.67-8-4.44-13.79-16.7-13.79-16.7s-.79-55.42,3-85.52C257.64,194.64,253.44,170.7,274.68,171.53Z" fill="#fff" opacity="0.8"/>
      </g>
      <path id="elku5cbu7y5wb" d="M289.09,230.41a162.588,162.588,0,0,1-6.83-14.78c-3.08-7.78-5.54-17-5.54-17s-23.32-.88-27.66,1.75c2.54,9.89,13.56,33.75,13.56,33.75S280.25,233.82,289.09,230.41Z" fill="#e0e0e0"/>
      <path id="el8n1zcv46upr" d="M265.12,235.68l21.2-.64c2.13-.06,3.23-1.62,2.43-3.46l-13.37-30.81a6,6,0,0,0-5.33-3.23l-21.2.64c-2.13.06-3.22,1.62-2.42,3.46l13.37,30.81A6,6,0,0,0,265.12,235.68Z" fill="#e73131"/>
      <path id="el30hyjjmd0rj" d="M264,236.93a6.28,6.28,0,0,1-5.42-3.38L245.2,202.74a2.66,2.66,0,0,1,.08-2.55,3,3,0,0,1,2.57-1.26l21.19-.64a6.28,6.28,0,0,1,5.57,3.38L288,232.48a2.71,2.71,0,0,1-.08,2.56,3,3,0,0,1-2.57,1.25l-21.2.64Zm.13-.5h0l21.2-.64a2.55,2.55,0,0,0,2.15-1,2.19,2.19,0,0,0,0-2.09l-13.37-30.81a5.68,5.68,0,0,0-5.09-3.08l-21.2.64a2.57,2.57,0,0,0-2.16,1,2.2,2.2,0,0,0,0,2.09L259,233.35a5.71,5.71,0,0,0,5.12,3.08Z" fill="#fff"/>
      <path id="el4zslmb6gopf" d="M276.56,212.63l2.51-1.23a3.28,3.28,0,0,1,3,.06l4.32,2.35a6,6,0,0,1,3.13,4.61l.15,1.21c-4,2.32-10.1,1.86-10.1,1.86l-1.75.06a2.71,2.71,0,0,1-2.88-2.57l-.16-3.45a3.1,3.1,0,0,1,1.78-2.9Z" fill="#ffb573"/>
      <g id="ele4cm44lq63k">
        <path id="elwl7duitvyb" d="M303.77,189.09c-.84,13.74-.89,26.32,2.78,28.44C310.85,213.3,310.54,207.38,303.77,189.09Z" fill="#16a085" opacity="0.2"/>
      </g>
      <path id="el4muvqcefoln" d="M313,179.39c.54,1.54,1,2.91,1.41,4.36s.86,2.86,1.26,4.3c.8,2.88,1.57,5.77,2.22,8.71a85.091,85.091,0,0,1,2.38,18.55,3.4,3.4,0,0,1,0,.45v.06a9.25,9.25,0,0,1-2.16,5.12,10.78,10.78,0,0,1-3.31,2.57,18,18,0,0,1-5.25,1.66,45.7,45.7,0,0,1-8.47.5c-2.67,0-5.25-.21-7.81-.45s-5.05-.51-7.72-.91l2-12c2.16.36,4.56.69,6.84.92s4.6.35,6.82.37a33.922,33.922,0,0,0,6.15-.45,6.849,6.849,0,0,0,1.72-.53c.07,0-.08,0-.42.36a3.29,3.29,0,0,0-.76,1.79v.52a57.187,57.187,0,0,0-.83-7.57c-.45-2.6-1.09-5.24-1.79-7.86s-1.52-5.25-2.41-7.85c-.45-1.3-.91-2.6-1.4-3.88s-1-2.61-1.46-3.75Z" fill="#16a085"/>
      <g id="elgez02ttzs2m">
        <path id="eln5aaxua0q4" d="M313,179.39c.54,1.54,1,2.91,1.41,4.36s.86,2.86,1.26,4.3c.8,2.88,1.57,5.77,2.22,8.71a85.091,85.091,0,0,1,2.38,18.55,3.4,3.4,0,0,1,0,.45v.06a9.25,9.25,0,0,1-2.16,5.12,10.78,10.78,0,0,1-3.31,2.57,18,18,0,0,1-5.25,1.66,45.7,45.7,0,0,1-8.47.5c-2.67,0-5.25-.21-7.81-.45s-5.05-.51-7.72-.91l2-12c2.16.36,4.56.69,6.84.92s4.6.35,6.82.37a33.922,33.922,0,0,0,6.15-.45,6.849,6.849,0,0,0,1.72-.53c.07,0-.08,0-.42.36a3.29,3.29,0,0,0-.76,1.79v.52a57.187,57.187,0,0,0-.83-7.57c-.45-2.6-1.09-5.24-1.79-7.86s-1.52-5.25-2.41-7.85c-.45-1.3-.91-2.6-1.4-3.88s-1-2.61-1.46-3.75Z" fill="#fff" opacity="0.8"/>
      </g>
      <path id="el2s66oh3ebf2" d="M293.79,132.71c-4.51,4.51-24.74-2.8-23.94,4.7-3.12-7,1.79-14.53,14.26-14.53C299.37,122.88,296.53,130,293.79,132.71Z" fill="#263238"/>
      <path id="el0y803lnwva3q" d="M239.72,155.76l-1-.3a23.8,23.8,0,0,0,1.12-6.38h1a25.351,25.351,0,0,1-1.12,6.68Z" fill="#16a085"/>
      <path id="el8kmlyob2itq" d="M239.36,143a24.26,24.26,0,0,0-10.6-15.42l.55-.84a25.26,25.26,0,0,1,11,16.05Z" fill="#16a085"/>
      <path id="el27xnvvpqr6e" d="M215.42,173.54a25.45,25.45,0,0,1-21.32-39.32l.83.54a24.46,24.46,0,0,0,20.49,37.78Z" fill="#16a085"/>
      <g id="eljfhz0t5dreb">
        <circle id="elwao8n508qvq" cx="22.1" cy="22.1" r="22.1" transform="translate(193.34 125.99)" fill="#f10c32"/>
      </g>
      <g id="elnb5ffom848e">
        <path id="el465p5v8z5uf" d="M212.42,161.51l-.29-.19c2.58-6.93,8.81-11.49,12.5-17.7,1.19-2,.39-4.73-1.34-6.27l.18-.38a.77.77,0,0,0-.36-1h0a.77.77,0,0,0-1,.37l-.1.2c-1.91-.76-3.91.17-5.07,2.09-3.69,6.21-9.92,10.77-12.5,17.7h0a.74.74,0,0,0-1,.22.73.73,0,0,0,.22,1l8,5.21a.74.74,0,1,0,.81-1.23Z" fill="#fff" opacity="0.5"/>
      </g>
      <path id="ely4rmaop0lq" d="M209.84,151a.5.5,0,0,1-.3-.11.49.49,0,0,1-.09-.7c1-1.23,2-2.47,3-3.67a.5.5,0,1,1,.75.66c-1,1.18-2.06,2.41-3,3.63A.53.53,0,0,1,209.84,151Z" fill="#fff"/>
      <path id="elpo5f8eyqzoj" d="M206.08,157.43a.33.33,0,0,1-.17,0,.49.49,0,0,1-.3-.64,21.281,21.281,0,0,1,2.06-4.06.5.5,0,1,1,.85.54,20.209,20.209,0,0,0-2,3.87A.52.52,0,0,1,206.08,157.43Z" fill="#fff"/>
      <path id="elfxw0b81gvr" d="M217.88,150a.51.51,0,0,1-.32-.12.49.49,0,0,1-.06-.7c.7-.81,1.36-1.59,2-2.37a.49.49,0,0,1,.7-.07.5.5,0,0,1,.07.7c-.65.79-1.32,1.58-2,2.38A.5.5,0,0,1,217.88,150Z" fill="#fff"/>
      <path id="elezqrw6tkzqe" d="M221.69,145.34a.52.52,0,0,1-.29-.09.51.51,0,0,1-.11-.7,24.574,24.574,0,0,0,1.39-2.11,3,3,0,0,0-.9-3.39.5.5,0,1,1,.66-.74,3.93,3.93,0,0,1,1.1,4.65c-.43.71-.9,1.42-1.44,2.18A.51.51,0,0,1,221.69,145.34Z" fill="#fff"/>
    </g>
    <g id="freepik--Plant--inject-69">
      <path id="elz31retgkvtn" d="M202.94,296.82c.61,5.19,13.59,3.73,22-3.81-5.23,2.61-16.3.83-21,2.22,1.26-2,2.51-3.93,3.73-5.73,1.26,3.55,10.9,1.77,17-4.29-3.75,2.13-11.72,1.44-15.66,2.42,2-2.9,3.94-5.48,5.66-7.69,2.77,1.18,9.32-2.59,12.59-8.54-3.06,3.14-11.71,4.51-13.85,6.76a2.52,2.52,0,0,0,.38,1c-.83,1.06-1.7,2.21-2.61,3.43-.67-3.27-5.8-9.46-6.07-13.61-1.58,7.63,2,15.88,5.32,14.64-1.49,2.05-3.07,4.29-4.68,6.73-1.21-3.63-7.43-9.94-8.14-14.5-1,8.49,3.61,17.16,7.17,16q-1.95,3-3.92,6.3c-2-4.33-11.23-11.24-13-16.91.32,10.78,7.58,20.76,11.86,18.85q-2,3.39-3.86,7.07c-2.71-4.69-13.63-11.61-16.1-17.83,1.32,12,10.25,22.52,14.92,20.18q-2.1,4.245-4,8.79c-3.36-4.37-16.76-9.33-20.75-15.41,3.95,12.24,15.58,21.27,19.83,17.64a127.883,127.883,0,0,0-4.2,12.44c-4.14-4-18.72-7.13-23.75-12.81,5.87,12,19.12,19.57,23.06,15.34a109.274,109.274,0,0,0-2.35,11.5c-5.41-3.63-22.29-4.16-29-9.47,8.84,12,24.79,17.77,28.64,12.67a86,86,0,0,0,1.45,28.48l1.13-.26a86.46,86.46,0,0,1-.89-32.19c1.76,6.53,19.31,4.58,30.91-5.49-7.78,3.71-24.46.49-30.48,2.89a111.459,111.459,0,0,1,2.88-12.09c1.87,5.41,17,4.25,27.4-4-6.82,2.89-20.78-.33-26.53,1.21,1.27-3.91,2.7-7.7,4.26-11.34,1.34,5.47,16.11,4.68,26.36-3.16-6.51,2.63-19.66-.6-25.28.69,1.44-3.21,3-6.29,4.52-9.23.6,5.71,15.13,4.86,25-3-6.14,2.62-18.74-.22-24,1.16C200.2,301.45,201.57,299.07,202.94,296.82Z" fill="#16a085"/>
      <g id="elov532wuh4f">
        <path id="el1o1lk4naobt" d="M202.94,296.82c.61,5.19,13.59,3.73,22-3.81-5.23,2.61-16.3.83-21,2.22,1.26-2,2.51-3.93,3.73-5.73,1.26,3.55,10.9,1.77,17-4.29-3.75,2.13-11.72,1.44-15.66,2.42,2-2.9,3.94-5.48,5.66-7.69,2.77,1.18,9.32-2.59,12.59-8.54-3.06,3.14-11.71,4.51-13.85,6.76a2.52,2.52,0,0,0,.38,1c-.83,1.06-1.7,2.21-2.61,3.43-.67-3.27-5.8-9.46-6.07-13.61-1.58,7.63,2,15.88,5.32,14.64-1.49,2.05-3.07,4.29-4.68,6.73-1.21-3.63-7.43-9.94-8.14-14.5-1,8.49,3.61,17.16,7.17,16q-1.95,3-3.92,6.3c-2-4.33-11.23-11.24-13-16.91.32,10.78,7.58,20.76,11.86,18.85q-2,3.39-3.86,7.07c-2.71-4.69-13.63-11.61-16.1-17.83,1.32,12,10.25,22.52,14.92,20.18q-2.1,4.245-4,8.79c-3.36-4.37-16.76-9.33-20.75-15.41,3.95,12.24,15.58,21.27,19.83,17.64a127.883,127.883,0,0,0-4.2,12.44c-4.14-4-18.72-7.13-23.75-12.81,5.87,12,19.12,19.57,23.06,15.34a109.274,109.274,0,0,0-2.35,11.5c-5.41-3.63-22.29-4.16-29-9.47,8.84,12,24.79,17.77,28.64,12.67a86,86,0,0,0,1.45,28.48l1.13-.26a86.46,86.46,0,0,1-.89-32.19c1.76,6.53,19.31,4.58,30.91-5.49-7.78,3.71-24.46.49-30.48,2.89a111.459,111.459,0,0,1,2.88-12.09c1.87,5.41,17,4.25,27.4-4-6.82,2.89-20.78-.33-26.53,1.21,1.27-3.91,2.7-7.7,4.26-11.34,1.34,5.47,16.11,4.68,26.36-3.16-6.51,2.63-19.66-.6-25.28.69,1.44-3.21,3-6.29,4.52-9.23.6,5.71,15.13,4.86,25-3-6.14,2.62-18.74-.22-24,1.16C200.2,301.45,201.57,299.07,202.94,296.82Z" opacity="0.3"/>
      </g>
      <path id="elgtv8nuqczcq" d="M172,379l-1.08-.07c2.46-36.61-26.3-67-38.78-78.32l.72-.8C145.45,311.3,174.47,342,172,379Z" fill="#16a085"/>
      <path id="elbqx8praodeu" d="M142.52,310.23c0-2.89,4.86-9.41,4.86-13.49C149.47,304.32,146,313,142.52,310.23Z" fill="#16a085"/>
      <path id="ell8xxa09fxk" d="M137.14,304.42c-.26-2.56,3.55-8.73,3.22-12.34C142.82,298.63,140.41,306.55,137.14,304.42Z" fill="#16a085"/>
      <path id="elkab1z60h5eg" d="M147.42,316c.49-3.64,7.84-11,8.59-16.09C157.26,309.81,151.25,320,147.42,316Z" fill="#16a085"/>
      <path id="el6zk4jxwn2g6" d="M152.56,322.79c.88-4.05,9.8-11.62,11.1-17.33C164.18,316.73,156.51,327.7,152.56,322.79Z" fill="#16a085"/>
      <path id="elrt78ynpyokm" d="M158.24,330.86c1.77-4,12.62-9.94,15.18-15.57C171.56,327.07,161.29,336.79,158.24,330.86Z" fill="#16a085"/>
      <path id="elhwj28hkltv7" d="M164.26,342.2c2.42-3.88,14.52-8.39,18-13.83C178.58,340.26,166.52,348.78,164.26,342.2Z" fill="#16a085"/>
      <path id="el7rv675l03no" d="M168.42,353.32c3.48-3.83,17.87-6.42,22.85-11.77C184.76,354.05,169.6,361.1,168.42,353.32Z" fill="#16a085"/>
      <path id="eleew5im5srcm" d="M140.78,308.06c-2.69-1.05-10.52,1.22-14.34-.23C132.79,312.47,142.11,312.25,140.78,308.06Z" fill="#16a085"/>
      <path id="elmf6sngv9wj" d="M134.75,300.63c-2-1.57-9.29-1.58-12.18-3.76C126.83,302.41,134.84,304.54,134.75,300.63Z" fill="#16a085"/>
      <path id="el5mp4uphbzwn" d="M145.43,313.56c-3.49-1.16-13.29,2.26-18.24.68C135.57,319.71,147.4,318.79,145.43,313.56Z" fill="#16a085"/>
      <path id="elapzutfmss56" d="M150.63,320c-4-1.07-14.81,3.43-20.48,2C139.94,327.54,153.2,325.71,150.63,320Z" fill="#16a085"/>
      <path id="elnvi8ixs7ghm" d="M156.66,328.29c-4.26-1-15.58,3.95-21.6,2.54C145.53,336.53,159.5,334.32,156.66,328.29Z" fill="#16a085"/>
      <path id="el4cr0x8cecz3" d="M162.7,338.9c-4.43-1.16-16.33,3.85-22.6,2.28C150.94,347.31,165.56,345.24,162.7,338.9Z" fill="#16a085"/>
      <path id="eliuwdekhktip" d="M167.28,350.56c-4.94-1.53-18.66,3.52-25.66,1.43C153.56,359.47,170.2,357.88,167.28,350.56Z" fill="#16a085"/>
      <path id="elaqlev254ai5" d="M163.86,416.24h24.41a3,3,0,0,0,3-2.7L196,367.8a3,3,0,0,0-3-3.32H159.16a3,3,0,0,0-3,3.32l4.69,45.74a3,3,0,0,0,3.01,2.7Z" fill="#16a085"/>
      <g id="elojgag2ghwb">
        <path id="elr3wf2hpl1" d="M163.86,416.24h24.41a3,3,0,0,0,3-2.7L196,367.8a3,3,0,0,0-3-3.32H159.16a3,3,0,0,0-3,3.32l4.69,45.74a3,3,0,0,0,3.01,2.7Z" fill="#fff" opacity="0.6"/>
      </g>
    </g>
  </g>
</svg>
